<svg width="62" height="63" viewBox="0 0 62 63" fill="none" xmlns="http://www.w3.org/2000/svg">
<rect y="0.5" width="62" height="62" rx="31" fill="#F8F8F8"/>
<path d="M47.625 27.4375H45.7413L40.5 22.1962C40.2803 21.9747 40.0187 21.7991 39.7305 21.6795C39.4423 21.56 39.1332 21.499 38.8212 21.5H32.7812V17.9375H36.3438C36.6587 17.9375 36.9607 17.8124 37.1834 17.5897C37.4061 17.367 37.5312 17.0649 37.5312 16.75C37.5312 16.4351 37.4061 16.133 37.1834 15.9103C36.9607 15.6876 36.6587 15.5625 36.3438 15.5625H26.8438C26.5288 15.5625 26.2268 15.6876 26.0041 15.9103C25.7814 16.133 25.6562 16.4351 25.6562 16.75C25.6562 17.0649 25.7814 17.367 26.0041 17.5897C26.2268 17.8124 26.5288 17.9375 26.8438 17.9375H30.4062V21.5H21.5C20.8701 21.5 20.266 21.7502 19.8206 22.1956C19.3752 22.641 19.125 23.2451 19.125 23.875V31.5938H15.5625V28.0312C15.5625 27.7163 15.4374 27.4143 15.2147 27.1916C14.992 26.9689 14.6899 26.8438 14.375 26.8438C14.0601 26.8438 13.758 26.9689 13.5353 27.1916C13.3126 27.4143 13.1875 27.7163 13.1875 28.0312V37.5312C13.1875 37.8462 13.3126 38.1482 13.5353 38.3709C13.758 38.5936 14.0601 38.7188 14.375 38.7188C14.6899 38.7188 14.992 38.5936 15.2147 38.3709C15.4374 38.1482 15.5625 37.8462 15.5625 37.5312V33.9688H19.125V37.0399C19.124 37.3519 19.185 37.661 19.3045 37.9492C19.4241 38.2374 19.5997 38.499 19.8212 38.7188L25.6562 44.5538C25.876 44.7753 26.1376 44.9509 26.4258 45.0704C26.714 45.19 27.0231 45.251 27.3351 45.25H38.8212C39.1332 45.251 39.4423 45.19 39.7305 45.0704C40.0187 44.9509 40.2803 44.7753 40.5 44.5538L45.7413 39.3125H47.625C48.2549 39.3125 48.859 39.0623 49.3044 38.6169C49.7498 38.1715 50 37.5674 50 36.9375V29.8125C50 29.1826 49.7498 28.5785 49.3044 28.1331C48.859 27.6877 48.2549 27.4375 47.625 27.4375ZM47.625 36.9375H45.25C45.094 36.9374 44.9395 36.968 44.7954 37.0276C44.6512 37.0872 44.5202 37.1746 44.4098 37.2848L38.8212 42.875H27.3351L21.5 37.0399V23.875H38.8212L44.4098 29.4652C44.5202 29.5754 44.6512 29.6628 44.7954 29.7224C44.9395 29.782 45.094 29.8126 45.25 29.8125H47.625V36.9375Z" fill="black"/>
</svg>
