<svg width="18" height="18" viewBox="0 0 18 18" fill="none" xmlns="http://www.w3.org/2000/svg">
<path d="M7.665 3.675L4.05 4.5H3.75C3.35218 4.5 2.97064 4.34196 2.68934 4.06066C2.40804 3.77936 2.25 3.39782 2.25 3C2.25 2.60218 2.40804 2.22064 2.68934 1.93934C2.97064 1.65804 3.35218 1.5 3.75 1.5H4.05L7.695 2.25" stroke="#AAAAAA" stroke-linecap="round" stroke-linejoin="round"/>
<path d="M9 4.5C9.82843 4.5 10.5 3.82843 10.5 3C10.5 2.17157 9.82843 1.5 9 1.5C8.17157 1.5 7.5 2.17157 7.5 3C7.5 3.82843 8.17157 4.5 9 4.5Z" stroke="#AAAAAA" stroke-linecap="round" stroke-linejoin="round"/>
<path d="M10.335 3.67499L13.935 4.42499H14.235C14.6328 4.42499 15.0144 4.26695 15.2957 3.98565C15.577 3.70434 15.735 3.32281 15.735 2.92499C15.735 2.52716 15.577 2.14563 15.2957 1.86433C15.0144 1.58302 14.6328 1.42499 14.235 1.42499H13.935L10.245 2.17499M9 4.49999V6.74999M16.5 6.74999V12.75M13.5 7.49999H16.5V12H13.5V7.49999Z" stroke="#AAAAAA" stroke-linecap="round" stroke-linejoin="round"/>
<path d="M13.5 8.24996H11.55C11.3006 7.79126 10.9321 7.40832 10.4833 7.14149C10.0346 6.87466 9.52211 6.73383 9 6.73383C8.47789 6.73383 7.96544 6.87466 7.51666 7.14149C7.06788 7.40832 6.69938 7.79126 6.45 8.24996H5.25C3.15 8.24996 1.5 9.89996 1.5 12V12.75H4.5V12C4.5 11.55 4.8 11.25 5.25 11.25H6.45C6.69938 11.7087 7.06788 12.0916 7.51666 12.3584C7.96544 12.6253 8.47789 12.7661 9 12.7661C9.52211 12.7661 10.0346 12.6253 10.4833 12.3584C10.9321 12.0916 11.3006 11.7087 11.55 11.25H13.5" stroke="#AAAAAA" stroke-linecap="round" stroke-linejoin="round"/>
<path d="M2.625 12.75C2.625 12.75 1.5 14.25 1.5 15C1.5 15.3978 1.65804 15.7794 1.93934 16.0607C2.22064 16.342 2.60218 16.5 3 16.5C3.39782 16.5 3.77936 16.342 4.06066 16.0607C4.34196 15.7794 4.5 15.3978 4.5 15C4.5 14.25 3.375 12.75 3.375 12.75" stroke="#AAAAAA" stroke-linecap="round" stroke-linejoin="round"/>
</svg>
