<svg width="18" height="18" viewBox="0 0 18 18" fill="none" xmlns="http://www.w3.org/2000/svg">
<path d="M14.5685 3.43617C13.8385 2.699 12.9701 2.11332 12.0131 1.71278C11.0561 1.31224 10.0295 1.10473 8.99204 1.10218C7.95462 1.09963 6.92692 1.30208 5.96798 1.6979C5.00904 2.09373 4.13776 2.67512 3.40419 3.40869C2.67062 4.14226 2.08923 5.01354 1.6934 5.97248C1.29758 6.93142 1.09513 7.95912 1.09768 8.99654C1.10023 10.034 1.30774 11.0606 1.70828 12.0176C2.10882 12.9746 2.6945 13.843 3.43167 14.573C4.16162 15.3101 5.03003 15.8958 5.98701 16.2964C6.94399 16.6969 7.97068 16.9044 9.0081 16.907C10.0455 16.9095 11.0732 16.7071 12.0322 16.3112C12.9911 15.9154 13.8624 15.334 14.5959 14.6004C15.3295 13.8669 15.9109 12.9956 16.3067 12.0367C16.7026 11.0777 16.905 10.05 16.9025 9.0126C16.8999 7.97518 16.6924 6.94849 16.2919 5.99151C15.8913 5.03453 15.3056 4.16612 14.5685 3.43617ZM2.25007 9.00457C2.2498 8.40716 2.32901 7.81237 2.48561 7.23586C2.74366 7.79133 3.11843 8.27121 3.37331 8.84109C3.70272 9.57375 4.58725 9.37054 4.97784 10.0125C5.32448 10.5824 4.95429 11.3031 5.21374 11.8993C5.40218 12.3321 5.84655 12.4267 6.15311 12.7431C6.46636 13.0623 6.45968 13.4996 6.50749 13.9159C6.5614 14.405 6.64891 14.8897 6.7694 15.3668C6.7694 15.3703 6.7694 15.3742 6.77222 15.3777C4.14147 14.4538 2.25007 11.9461 2.25007 9.00457ZM9.00007 15.7546C8.6231 15.7545 8.2468 15.723 7.87507 15.6603C7.87893 15.5651 7.88069 15.4761 7.89018 15.4143C7.97561 14.8553 8.25546 14.3086 8.63304 13.8902C9.00604 13.4775 9.51722 13.1984 9.83222 12.7301C10.1409 12.273 10.2333 11.6578 10.1061 11.1238C9.9187 10.3349 8.84679 10.0716 8.26882 9.64371C7.93659 9.39761 7.64093 9.01722 7.20464 8.98629C7.00354 8.97222 6.83514 9.01547 6.63581 8.96414C6.453 8.91668 6.30956 8.81824 6.11479 8.8439C5.75093 8.89172 5.52136 9.28055 5.13042 9.22781C4.75952 9.17824 4.37737 8.74406 4.293 8.39074C4.18472 7.93652 4.54401 7.78922 4.92897 7.74879C5.08964 7.73191 5.26999 7.71363 5.42432 7.77269C5.62753 7.84793 5.7235 8.04691 5.90597 8.14746C6.24804 8.33519 6.31729 8.03531 6.26491 7.73156C6.18651 7.27664 6.09511 7.09136 6.50081 6.77812C6.78206 6.56226 7.02253 6.40617 6.97753 6.0184C6.95081 5.79058 6.826 5.68758 6.94237 5.46082C7.03061 5.2882 7.27284 5.13246 7.43069 5.02945C7.83815 4.76367 9.1762 4.78336 8.62952 4.03945C8.46886 3.82113 8.17249 3.4309 7.89124 3.37746C7.53968 3.31101 7.38358 3.70336 7.13854 3.87633C6.88542 4.05527 6.39253 4.25847 6.13905 3.98179C5.79804 3.60949 6.36511 3.4875 6.49061 3.22734C6.54862 3.10605 6.49061 2.93765 6.39288 2.7791C6.51968 2.72566 6.64858 2.67609 6.7796 2.63039C6.86171 2.69103 6.95911 2.72756 7.06085 2.73586C7.29604 2.75133 7.51788 2.62406 7.72319 2.78437C7.951 2.96015 8.11518 3.18234 8.41753 3.23719C8.71003 3.29027 9.01975 3.11976 9.09218 2.82023C9.13612 2.63812 9.09218 2.44582 9.04999 2.25773C10.3648 2.2653 11.6485 2.65907 12.7414 3.39012C12.6711 3.3634 12.5871 3.36656 12.4833 3.41472C12.2699 3.51386 11.9676 3.76629 11.9426 4.0166C11.9142 4.30066 12.3332 4.34074 12.5322 4.34074C12.831 4.34074 13.1337 4.20715 13.0374 3.86191C12.9956 3.71215 12.9386 3.5564 12.8469 3.46219C13.0675 3.61522 13.2788 3.78122 13.4797 3.95929C13.4765 3.96246 13.4733 3.96527 13.4702 3.96879C13.2677 4.17972 13.0325 4.34672 12.894 4.60336C12.7962 4.78406 12.6862 4.86984 12.4883 4.9166C12.3793 4.94226 12.2548 4.95176 12.1634 5.02488C11.9089 5.22527 12.0537 5.70691 12.2949 5.8514C12.5997 6.03386 13.0518 5.94808 13.2817 5.68758C13.4614 5.48367 13.5672 5.12965 13.8903 5.13C14.0325 5.1297 14.1692 5.1854 14.2707 5.28504C14.4043 5.42355 14.3779 5.55293 14.4064 5.7259C14.4567 6.03316 14.7277 5.86652 14.8926 5.71148C15.0128 5.92538 15.1212 6.14566 15.2175 6.37136C15.036 6.63258 14.8919 6.91734 14.4556 6.61289C14.1944 6.43043 14.0337 6.1657 13.7057 6.08344C13.4192 6.01312 13.1257 6.08625 12.8426 6.13511C12.521 6.19101 12.1395 6.21562 11.8955 6.45926C11.6596 6.6941 11.5348 7.0084 11.2838 7.24429C10.7983 7.70133 10.5933 8.20019 10.9076 8.84636C11.21 9.46758 11.8425 9.80472 12.5248 9.76043C13.1953 9.71578 13.8917 9.32695 13.8724 10.3011C13.8653 10.646 13.9374 10.8847 14.0432 11.205C14.1413 11.5003 14.1346 11.7865 14.1571 12.0913C14.1785 12.4482 14.2343 12.8022 14.3238 13.1484C13.6936 13.9598 12.8864 14.6163 11.9637 15.068C11.0411 15.5197 10.0274 15.7545 9.00007 15.7546Z" fill="#222222"/>
</svg>
