<svg width="38" height="38" viewBox="0 0 38 38" fill="none" xmlns="http://www.w3.org/2000/svg">
<path d="M22.0927 2.40171L19.4131 16.4802L29.1204 16.5128L15.907 35.5983L18.5866 20.1097L8.88001 20.0759L22.0927 2.40171ZM22.0945 0.0267466C22.0304 0.0267466 21.9663 0.0290845 21.9034 0.0337974C21.4842 0.0676782 21.2063 0.207803 20.8768 0.429272C20.6912 0.552971 20.5239 0.702067 20.3798 0.872209C20.3365 0.923285 20.2957 0.976387 20.2574 1.03133L6.94973 18.6437C6.42426 19.364 6.34707 20.3146 6.75082 21.109C7.15398 21.9035 7.9692 22.407 8.86279 22.4135L15.7182 22.4634L13.5629 35.1619C13.3581 36.2532 13.9399 37.341 14.9642 37.7792C15.2618 37.9071 15.5824 37.9729 15.9064 37.9727C16.6528 37.9727 17.2661 37.6236 17.7263 36.993L31.0506 17.9075C31.5761 17.1872 31.6527 16.2355 31.2495 15.4422C30.8464 14.6478 30.0312 14.1442 29.1376 14.1377L22.2821 14.1259L24.4143 2.96039C24.4595 2.77759 24.4822 2.58997 24.482 2.40167C24.482 1.1168 23.4589 0.0694224 22.1788 0.0278599C22.1504 0.0266724 22.1224 0.0266724 22.0945 0.0266724L22.0945 0.0267466Z" fill="black"/>
</svg>
