<svg width="38" height="38" viewBox="0 0 38 38" fill="none" xmlns="http://www.w3.org/2000/svg">
<g clip-path="url(#clip0_121_2752)">
<path d="M21.2371 35.8889H6.22713C5.82969 35.9016 5.43375 35.8343 5.06285 35.691C4.69195 35.5476 4.35365 35.3312 4.06808 35.0545C3.78251 34.7777 3.5555 34.4464 3.40053 34.0802C3.24556 33.714 3.16581 33.3204 3.16602 32.9228V5.13C3.19627 4.31984 3.54667 3.55477 4.14034 3.00265C4.73401 2.45054 5.52246 2.15648 6.33268 2.185H21.3427C21.7313 2.1763 22.1177 2.2466 22.4783 2.39165C22.839 2.53671 23.1664 2.75349 23.4408 3.02886C23.7152 3.30423 23.9308 3.63245 24.0746 3.99362C24.2183 4.35479 24.2872 4.7414 24.2771 5.13V32.9228C24.2758 33.3182 24.1957 33.7094 24.0416 34.0735C23.8874 34.4376 23.6623 34.7673 23.3792 35.0434C23.0962 35.3196 22.7611 35.5366 22.3933 35.6817C22.0255 35.8269 21.6324 35.8973 21.2371 35.8889ZM6.22713 4.22222C6.10478 4.218 5.98281 4.23827 5.86841 4.28187C5.75401 4.32546 5.64948 4.39148 5.56097 4.47606C5.47246 4.56064 5.40175 4.66206 5.353 4.77437C5.30426 4.88667 5.27846 5.00758 5.27713 5.13V32.9228C5.27713 33.1663 5.37388 33.3999 5.5461 33.5721C5.71832 33.7444 5.9519 33.8411 6.19546 33.8411H21.2371C21.4898 33.8445 21.7342 33.7514 21.9206 33.5807C22.1069 33.4101 22.2211 33.1748 22.2399 32.9228V5.13C22.2186 4.87992 22.1032 4.64721 21.9172 4.47876C21.7311 4.31031 21.4881 4.21865 21.2371 4.22222H6.22713Z" fill="black"/>
<path d="M31.1698 35.8889C30.682 35.8931 30.1982 35.8006 29.7463 35.6168C29.2944 35.433 28.8834 35.1616 28.5369 34.8181C28.1905 34.4746 27.9156 34.0659 27.7279 33.6156C27.5403 33.1653 27.4437 32.6823 27.4437 32.1945V24.2778C27.4437 23.7179 27.2213 23.1809 26.8254 22.785C26.4294 22.3891 25.8925 22.1667 25.3326 22.1667H23.8231C23.5432 22.1667 23.2747 22.0555 23.0767 21.8575C22.8788 21.6596 22.7676 21.3911 22.7676 21.1111C22.7676 20.8312 22.8788 20.5627 23.0767 20.3647C23.2747 20.1668 23.5432 20.0556 23.8231 20.0556H25.3326C26.4524 20.0556 27.5263 20.5004 28.3181 21.2922C29.11 22.0841 29.5548 23.158 29.5548 24.2778V32.1945C29.5548 32.6144 29.7216 33.0171 30.0185 33.3141C30.3155 33.611 30.7182 33.7778 31.1381 33.7778C31.5581 33.7778 31.9608 33.611 32.2577 33.3141C32.5547 33.0171 32.7215 32.6144 32.7215 32.1945V18.2611L29.4176 10.8723C29.2202 10.4605 28.9102 10.1131 28.5235 9.87023C28.1368 9.62737 27.6892 9.49902 27.2326 9.50003H26.462C26.1821 9.50003 25.9136 9.38882 25.7156 9.19086C25.5177 8.99291 25.4065 8.72442 25.4065 8.44447C25.4065 8.16452 25.5177 7.89604 25.7156 7.69808C25.9136 7.50013 26.1821 7.38892 26.462 7.38892H27.2326C28.1102 7.38846 28.9692 7.64248 29.7055 8.12021C30.4418 8.59794 31.0237 9.27888 31.3809 10.0806L34.7692 17.6384C34.8312 17.7743 34.8636 17.9218 34.8642 18.0711V32.1945C34.8642 33.1743 34.475 34.114 33.7822 34.8068C33.0893 35.4997 32.1496 35.8889 31.1698 35.8889Z" fill="black"/>
<path d="M18.9998 9.50003H8.44423C8.16428 9.50003 7.89579 9.38882 7.69784 9.19086C7.49988 8.99291 7.38867 8.72442 7.38867 8.44447C7.38867 8.16452 7.49988 7.89604 7.69784 7.69808C7.89579 7.50013 8.16428 7.38892 8.44423 7.38892H18.9998C19.2797 7.38892 19.5482 7.50013 19.7462 7.69808C19.9441 7.89604 20.0553 8.16452 20.0553 8.44447C20.0553 8.72442 19.9441 8.99291 19.7462 9.19086C19.5482 9.38882 19.2797 9.50003 18.9998 9.50003Z" fill="black"/>
<path d="M18.9998 13.7222H8.44423C8.16428 13.7222 7.89579 13.611 7.69784 13.413C7.49988 13.2151 7.38867 12.9466 7.38867 12.6666C7.38867 12.3867 7.49988 12.1182 7.69784 11.9202C7.89579 11.7223 8.16428 11.6111 8.44423 11.6111H18.9998C19.2797 11.6111 19.5482 11.7223 19.7462 11.9202C19.9441 12.1182 20.0553 12.3867 20.0553 12.6666C20.0553 12.9466 19.9441 13.2151 19.7462 13.413C19.5482 13.611 19.2797 13.7222 18.9998 13.7222Z" fill="black"/>
<path d="M26.3895 12.7511C26.1096 12.7511 25.8411 12.6399 25.6431 12.4419C25.4452 12.244 25.334 11.9755 25.334 11.6955V5.3622C25.334 5.08225 25.4452 4.81376 25.6431 4.61581C25.8411 4.41785 26.1096 4.30664 26.3895 4.30664C26.6695 4.30664 26.938 4.41785 27.1359 4.61581C27.3339 4.81376 27.4451 5.08225 27.4451 5.3622V11.6955C27.4451 11.9755 27.3339 12.244 27.1359 12.4419C26.938 12.6399 26.6695 12.7511 26.3895 12.7511Z" fill="black"/>
</g>
<defs>
<clipPath id="clip0_121_2752">
<rect width="38" height="38" fill="white"/>
</clipPath>
</defs>
</svg>
