<svg width="100" height="101" viewBox="0 0 100 101" fill="none" xmlns="http://www.w3.org/2000/svg">
<path d="M8.33301 92.1667H54.1663C59.0909 92.1667 63.9673 91.1968 68.517 89.3122C73.0667 87.4277 77.2007 84.6654 80.6828 81.1832C84.165 77.701 86.9273 73.5671 88.8118 69.0174C90.6964 64.4677 91.6663 59.5913 91.6663 54.6667C91.6663 49.7422 90.6964 44.8658 88.8118 40.3161C86.9273 35.7664 84.165 31.6324 80.6828 28.1502C77.2007 24.668 73.0667 21.9058 68.517 20.0213C63.9673 18.1367 59.0909 17.1667 54.1663 17.1667C34.8622 17.1667 18.7372 31.7501 16.6663 50.5001M77.083 23.4167L81.2497 19.2501M22.9163 19.2501L27.083 23.4167" stroke="black" stroke-width="4" stroke-linecap="round" stroke-linejoin="round"/>
<path d="M68.7497 38L56.4997 50.25C55.9231 49.6531 55.2335 49.177 54.471 48.8494C53.7084 48.5219 52.8883 48.3494 52.0584 48.3422C51.2286 48.335 50.4056 48.4932 49.6375 48.8074C48.8694 49.1217 48.1715 49.5857 47.5847 50.1726C46.9979 50.7594 46.5338 51.4572 46.2195 52.2253C45.9053 52.9934 45.7471 53.8164 45.7544 54.6463C45.7616 55.4762 45.934 56.2963 46.2615 57.0588C46.5891 57.8213 47.0652 58.511 47.6622 59.0875C48.8347 60.26 50.4249 60.9187 52.083 60.9187C53.7411 60.9187 55.3314 60.26 56.5038 59.0875C57.6763 57.9151 58.335 56.3248 58.335 54.6667C58.335 53.0086 57.6763 51.4184 56.5038 50.2459M52.083 15.0834V8.83337M43.7497 8.83337H60.4163M8.33301 63H20.833M8.33301 79.6667H29.1663" stroke="black" stroke-width="4" stroke-linecap="round" stroke-linejoin="round"/>
</svg>
