<svg width="100" height="101" viewBox="0 0 100 101" fill="none" xmlns="http://www.w3.org/2000/svg">
<path d="M50.0016 92.1668C73.0135 92.1668 91.6683 73.512 91.6683 50.5002C91.6683 27.4883 73.0135 8.8335 50.0016 8.8335C26.9898 8.8335 8.33496 27.4883 8.33496 50.5002C8.33496 73.512 26.9898 92.1668 50.0016 92.1668Z" stroke="black" stroke-width="4" stroke-linecap="round" stroke-linejoin="round"/>
<path d="M13.75 29.667L42.9167 46.3337M57.0833 46.3337L86.25 29.667M50 58.8337V92.167" stroke="black" stroke-width="4" stroke-linecap="round" stroke-linejoin="round"/>
<path d="M50.0033 58.8337C54.6056 58.8337 58.3366 55.1027 58.3366 50.5003C58.3366 45.898 54.6056 42.167 50.0033 42.167C45.4009 42.167 41.6699 45.898 41.6699 50.5003C41.6699 55.1027 45.4009 58.8337 50.0033 58.8337Z" stroke="black" stroke-width="4" stroke-linecap="round" stroke-linejoin="round"/>
</svg>
