<svg width="100" height="101" viewBox="0 0 100 101" fill="none" xmlns="http://www.w3.org/2000/svg">
<path d="M40.625 6.75V19.25L34.375 22.375L25 13L12.5 25.5L21.875 34.875L18.75 41.125H6.25V59.875H18.75L21.875 66.125L12.5 75.5L25 88L34.375 78.625L40.625 81.75V94.25H59.375V81.75L65.625 78.625L75 88L87.5 75.5L78.125 66.125L81.25 59.875H93.75V41.125H81.25L78.125 34.875L87.5 25.5L75 13L65.625 22.375L59.375 19.25V6.75H40.625Z" stroke="black" stroke-width="4" stroke-linecap="round" stroke-linejoin="round"/>
<path d="M50 63C56.9036 63 62.5 57.4036 62.5 50.5C62.5 43.5964 56.9036 38 50 38C43.0964 38 37.5 43.5964 37.5 50.5C37.5 57.4036 43.0964 63 50 63Z" stroke="black" stroke-width="4" stroke-linecap="round" stroke-linejoin="round"/>
</svg>
