<svg width="48" height="48" viewBox="0 0 48 48" fill="none" xmlns="http://www.w3.org/2000/svg">
<rect width="48" height="48" fill="#C9C9C9"/>
<path d="M29.3327 29.3333L23.9993 24L18.666 29.3333" stroke="white" stroke-width="2" stroke-linecap="round" stroke-linejoin="round"/>
<path d="M24 24V36" stroke="white" stroke-width="2" stroke-linecap="round" stroke-linejoin="round"/>
<path d="M35.1866 32.52C36.4871 31.811 37.5144 30.6892 38.1064 29.3315C38.6985 27.9738 38.8216 26.4577 38.4562 25.0223C38.0909 23.5869 37.2579 22.314 36.0888 21.4046C34.9198 20.4952 33.4811 20.001 31.9999 20H30.3199C29.9164 18.439 29.1642 16.9898 28.1199 15.7613C27.0756 14.5329 25.7664 13.5572 24.2907 12.9075C22.8151 12.2578 21.2113 11.9512 19.6001 12.0105C17.9889 12.0699 16.412 12.4938 14.9882 13.2502C13.5643 14.0067 12.3305 15.0762 11.3794 16.3781C10.4284 17.6801 9.78487 19.1807 9.49725 20.7672C9.20964 22.3537 9.28542 23.9847 9.7189 25.5377C10.1524 27.0907 10.9323 28.5252 11.9999 29.7334" stroke="white" stroke-width="2" stroke-linecap="round" stroke-linejoin="round"/>
<path d="M29.3327 29.3333L23.9993 24L18.666 29.3333" stroke="white" stroke-width="2" stroke-linecap="round" stroke-linejoin="round"/>
</svg>
