<svg width="38" height="38" viewBox="0 0 38 38" fill="none" xmlns="http://www.w3.org/2000/svg">
<path d="M35.625 15.4375H33.7413L28.5 10.1962C28.2803 9.97467 28.0187 9.79906 27.7305 9.67955C27.4423 9.56004 27.1332 9.499 26.8212 9.5H20.7812V5.9375H24.3438C24.6587 5.9375 24.9607 5.81239 25.1834 5.58969C25.4061 5.36699 25.5312 5.06494 25.5312 4.75C25.5312 4.43506 25.4061 4.13301 25.1834 3.91031C24.9607 3.68761 24.6587 3.5625 24.3438 3.5625H14.8438C14.5288 3.5625 14.2268 3.68761 14.0041 3.91031C13.7814 4.13301 13.6562 4.43506 13.6562 4.75C13.6562 5.06494 13.7814 5.36699 14.0041 5.58969C14.2268 5.81239 14.5288 5.9375 14.8438 5.9375H18.4062V9.5H9.5C8.87011 9.5 8.26602 9.75022 7.82062 10.1956C7.37522 10.641 7.125 11.2451 7.125 11.875V19.5938H3.5625V16.0312C3.5625 15.7163 3.43739 15.4143 3.21469 15.1916C2.99199 14.9689 2.68994 14.8438 2.375 14.8438C2.06006 14.8438 1.75801 14.9689 1.53531 15.1916C1.31261 15.4143 1.1875 15.7163 1.1875 16.0312V25.5312C1.1875 25.8462 1.31261 26.1482 1.53531 26.3709C1.75801 26.5936 2.06006 26.7188 2.375 26.7188C2.68994 26.7188 2.99199 26.5936 3.21469 26.3709C3.43739 26.1482 3.5625 25.8462 3.5625 25.5312V21.9688H7.125V25.0399C7.124 25.3519 7.18504 25.661 7.30455 25.9492C7.42406 26.2374 7.59967 26.499 7.82117 26.7188L13.6562 32.5538C13.876 32.7753 14.1376 32.9509 14.4258 33.0704C14.714 33.19 15.0231 33.251 15.3351 33.25H26.8212C27.1332 33.251 27.4423 33.19 27.7305 33.0704C28.0187 32.9509 28.2803 32.7753 28.5 32.5538L33.7413 27.3125H35.625C36.2549 27.3125 36.859 27.0623 37.3044 26.6169C37.7498 26.1715 38 25.5674 38 24.9375V17.8125C38 17.1826 37.7498 16.5785 37.3044 16.1331C36.859 15.6877 36.2549 15.4375 35.625 15.4375ZM35.625 24.9375H33.25C33.094 24.9374 32.9395 24.968 32.7954 25.0276C32.6512 25.0872 32.5202 25.1746 32.4098 25.2848L26.8212 30.875H15.3351L9.5 25.0399V11.875H26.8212L32.4098 17.4652C32.5202 17.5754 32.6512 17.6628 32.7954 17.7224C32.9395 17.782 33.094 17.8126 33.25 17.8125H35.625V24.9375Z" fill="black"/>
</svg>
