<svg width="38" height="39" viewBox="0 0 38 39" fill="none" xmlns="http://www.w3.org/2000/svg">
<path d="M35.625 15.9375H34.0219L29.8983 6.66016C29.7117 6.24041 29.4073 5.8838 29.0222 5.63351C28.637 5.38322 28.1875 5.25001 27.7281 5.25H10.2719C9.81252 5.25001 9.36302 5.38322 8.97784 5.63351C8.59266 5.8838 8.28833 6.24041 8.10172 6.66016L3.97812 15.9375H2.375C2.06006 15.9375 1.75801 16.0626 1.53531 16.2853C1.31261 16.508 1.1875 16.8101 1.1875 17.125C1.1875 17.4399 1.31261 17.742 1.53531 17.9647C1.75801 18.1874 2.06006 18.3125 2.375 18.3125H3.5625V30.1875C3.5625 30.8174 3.81272 31.4215 4.25812 31.8669C4.70352 32.3123 5.30761 32.5625 5.9375 32.5625H9.5C10.1299 32.5625 10.734 32.3123 11.1794 31.8669C11.6248 31.4215 11.875 30.8174 11.875 30.1875V27.8125H26.125V30.1875C26.125 30.8174 26.3752 31.4215 26.8206 31.8669C27.266 32.3123 27.8701 32.5625 28.5 32.5625H32.0625C32.6924 32.5625 33.2965 32.3123 33.7419 31.8669C34.1873 31.4215 34.4375 30.8174 34.4375 30.1875V18.3125H35.625C35.9399 18.3125 36.242 18.1874 36.4647 17.9647C36.6874 17.742 36.8125 17.4399 36.8125 17.125C36.8125 16.8101 36.6874 16.508 36.4647 16.2853C36.242 16.0626 35.9399 15.9375 35.625 15.9375ZM10.2719 7.625H27.7281L31.4227 15.9375H6.57727L10.2719 7.625ZM9.5 30.1875H5.9375V27.8125H9.5V30.1875ZM28.5 30.1875V27.8125H32.0625V30.1875H28.5ZM32.0625 25.4375H5.9375V18.3125H32.0625V25.4375ZM8.3125 21.875C8.3125 21.5601 8.43761 21.258 8.66031 21.0353C8.88301 20.8126 9.18506 20.6875 9.5 20.6875H11.875C12.1899 20.6875 12.492 20.8126 12.7147 21.0353C12.9374 21.258 13.0625 21.5601 13.0625 21.875C13.0625 22.1899 12.9374 22.492 12.7147 22.7147C12.492 22.9374 12.1899 23.0625 11.875 23.0625H9.5C9.18506 23.0625 8.88301 22.9374 8.66031 22.7147C8.43761 22.492 8.3125 22.1899 8.3125 21.875ZM24.9375 21.875C24.9375 21.5601 25.0626 21.258 25.2853 21.0353C25.508 20.8126 25.8101 20.6875 26.125 20.6875H28.5C28.8149 20.6875 29.117 20.8126 29.3397 21.0353C29.5624 21.258 29.6875 21.5601 29.6875 21.875C29.6875 22.1899 29.5624 22.492 29.3397 22.7147C29.117 22.9374 28.8149 23.0625 28.5 23.0625H26.125C25.8101 23.0625 25.508 22.9374 25.2853 22.7147C25.0626 22.492 24.9375 22.1899 24.9375 21.875Z" fill="#274C3E"/>
</svg>
