<svg width="25" height="24" viewBox="0 0 25 24" fill="none" xmlns="http://www.w3.org/2000/svg">
<path d="M16.2285 3.88402C17.6625 2.44402 19.7605 2.41402 20.9215 3.58002C22.0855 4.74802 22.0545 6.86002 20.6185 8.30002L18.1955 10.733C18.059 10.8747 17.9837 11.0642 17.9857 11.2609C17.9877 11.4575 18.0668 11.6455 18.2061 11.7844C18.3453 11.9233 18.5335 12.0019 18.7302 12.0033C18.9269 12.0047 19.1162 11.9288 19.2575 11.792L21.6815 9.35902C23.5925 7.44002 23.8325 4.37702 21.9845 2.52102C20.1345 0.664016 17.0775 0.906016 15.1645 2.82502L10.3185 7.69202C8.40746 9.61102 8.16746 12.674 10.0155 14.529C10.0845 14.6008 10.1671 14.6581 10.2585 14.6976C10.3499 14.7371 10.4483 14.758 10.5478 14.7591C10.6474 14.7602 10.7462 14.7415 10.8385 14.704C10.9307 14.6665 11.0146 14.611 11.0851 14.5407C11.1557 14.4705 11.2116 14.3869 11.2495 14.2948C11.2875 14.2028 11.3067 14.1041 11.3061 14.0045C11.3054 13.9049 11.285 13.8064 11.2459 13.7149C11.2068 13.6233 11.1499 13.5404 11.0785 13.471C9.91446 12.303 9.94646 10.191 11.3815 8.75102L16.2285 3.88402Z" fill="white"/>
<path d="M14.9855 9.46998C14.8449 9.32902 14.6541 9.24967 14.455 9.24939C14.2559 9.24911 14.0649 9.32792 13.924 9.46848C13.783 9.60905 13.7036 9.79985 13.7034 9.99892C13.7031 10.198 13.7819 10.389 13.9225 10.53C15.0865 11.698 15.0555 13.809 13.6195 15.25L8.77246 20.116C7.33746 21.556 5.23946 21.586 4.07846 20.42C2.91446 19.252 2.94646 17.14 4.38146 15.7L6.80546 13.267C6.87499 13.1972 6.9301 13.1144 6.96763 13.0233C7.00516 12.9322 7.02438 12.8346 7.0242 12.7361C7.02401 12.6375 7.00442 12.54 6.96655 12.4491C6.92868 12.3581 6.87326 12.2755 6.80346 12.206C6.73366 12.1364 6.65085 12.0813 6.55976 12.0438C6.46866 12.0063 6.37107 11.9871 6.27254 11.9872C6.17402 11.9874 6.0765 12.007 5.98555 12.0449C5.8946 12.0828 5.81199 12.1382 5.74246 12.208L3.31846 14.641C1.40746 16.561 1.16746 19.623 3.01546 21.479C4.86546 23.337 7.92246 23.094 9.83546 21.175L14.6825 16.308C16.5935 14.39 16.8335 11.325 14.9855 9.46998Z" fill="white"/>
</svg>
