<svg width="20" height="20" viewBox="0 0 20 20" fill="none" xmlns="http://www.w3.org/2000/svg">
<g clip-path="url(#clip0_256_1625)">
<path d="M11.5723 11.5137C10.9993 11.0254 10.3646 10.651 9.66797 10.3906C8.97135 10.1302 8.2487 10 7.5 10C6.92708 10 6.3737 10.0749 5.83984 10.2246C5.30599 10.3743 4.80794 10.5827 4.3457 10.8496C3.88346 11.1165 3.46354 11.4421 3.08594 11.8262C2.70833 12.2103 2.38281 12.6335 2.10938 13.0957C1.83594 13.5579 1.62435 14.056 1.47461 14.5898C1.32487 15.1237 1.25 15.6771 1.25 16.25H0C0 15.4688 0.113932 14.7168 0.341797 13.9941C0.569661 13.2715 0.898438 12.6042 1.32812 11.9922C1.75781 11.3802 2.26562 10.8366 2.85156 10.3613C3.4375 9.88607 4.10156 9.51172 4.84375 9.23828C4.10807 8.75651 3.53516 8.15104 3.125 7.42188C2.71484 6.69271 2.50651 5.88542 2.5 5C2.5 4.3099 2.63021 3.66211 2.89062 3.05664C3.15104 2.45117 3.50586 1.92057 3.95508 1.46484C4.4043 1.00911 4.9349 0.651042 5.54688 0.390625C6.15885 0.130208 6.8099 0 7.5 0C8.1901 0 8.83789 0.130208 9.44336 0.390625C10.0488 0.651042 10.5794 1.00586 11.0352 1.45508C11.4909 1.9043 11.849 2.4349 12.1094 3.04688C12.3698 3.65885 12.5 4.3099 12.5 5C12.5 5.42969 12.4479 5.84961 12.3438 6.25977C12.2396 6.66992 12.0833 7.05729 11.875 7.42188C11.6667 7.78646 11.4225 8.12175 11.1426 8.42773C10.8626 8.73372 10.5339 9.00391 10.1562 9.23828C10.5794 9.40104 10.9831 9.59961 11.3672 9.83398C11.7513 10.0684 12.1126 10.332 12.4512 10.625L11.5723 11.5137ZM3.75 5C3.75 5.52083 3.84766 6.00586 4.04297 6.45508C4.23828 6.9043 4.50521 7.30143 4.84375 7.64648C5.18229 7.99154 5.57943 8.26172 6.03516 8.45703C6.49089 8.65234 6.97917 8.75 7.5 8.75C8.01432 8.75 8.49935 8.65234 8.95508 8.45703C9.41081 8.26172 9.80794 7.99479 10.1465 7.65625C10.485 7.31771 10.7552 6.92057 10.957 6.46484C11.1589 6.00911 11.2565 5.52083 11.25 5C11.25 4.48568 11.1523 4.00065 10.957 3.54492C10.7617 3.08919 10.4948 2.69206 10.1562 2.35352C9.81771 2.01497 9.41732 1.74479 8.95508 1.54297C8.49284 1.34115 8.00781 1.24349 7.5 1.25C6.97917 1.25 6.49414 1.34766 6.04492 1.54297C5.5957 1.73828 5.19857 2.00521 4.85352 2.34375C4.50846 2.68229 4.23828 3.08268 4.04297 3.54492C3.84766 4.00716 3.75 4.49219 3.75 5ZM16.875 7.5C17.3047 7.5 17.7083 7.58138 18.0859 7.74414C18.4635 7.9069 18.7923 8.13151 19.0723 8.41797C19.3522 8.70443 19.5768 9.03646 19.7461 9.41406C19.9154 9.79167 20 10.1953 20 10.625C20 11.0547 19.9186 11.4583 19.7559 11.8359C19.5931 12.2135 19.3685 12.5456 19.082 12.832C18.7956 13.1185 18.4635 13.3431 18.0859 13.5059C17.7083 13.6686 17.3047 13.75 16.875 13.75C16.7253 13.75 16.5788 13.7402 16.4355 13.7207L10.7031 19.4531C10.5273 19.6289 10.3255 19.7624 10.0977 19.8535C9.86979 19.9447 9.62891 19.9935 9.375 20C9.11458 20 8.87044 19.9512 8.64258 19.8535C8.41471 19.7559 8.21615 19.6224 8.04688 19.4531C7.8776 19.2839 7.74414 19.0853 7.64648 18.8574C7.54883 18.6296 7.5 18.3854 7.5 18.125C7.5 17.8776 7.54557 17.64 7.63672 17.4121C7.72786 17.1842 7.86458 16.9792 8.04688 16.7969L13.7793 11.0645C13.7598 10.9212 13.75 10.7747 13.75 10.625C13.75 10.1953 13.8314 9.79167 13.9941 9.41406C14.1569 9.03646 14.3783 8.70768 14.6582 8.42773C14.9382 8.14779 15.2702 7.92318 15.6543 7.75391C16.0384 7.58464 16.4453 7.5 16.875 7.5ZM16.875 12.5C17.1354 12.5 17.3796 12.4512 17.6074 12.3535C17.8353 12.2559 18.0339 12.1224 18.2031 11.9531C18.3724 11.7839 18.5059 11.5853 18.6035 11.3574C18.7012 11.1296 18.75 10.8854 18.75 10.625C18.75 10.3581 18.6882 10.0911 18.5645 9.82422L17.1387 11.25H16.25V10.3613L17.6758 8.93555C17.4089 8.81185 17.1419 8.75 16.875 8.75C16.6146 8.75 16.3704 8.79883 16.1426 8.89648C15.9147 8.99414 15.7161 9.1276 15.5469 9.29688C15.3776 9.46615 15.2441 9.66471 15.1465 9.89258C15.0488 10.1204 15 10.3646 15 10.625C15 10.8919 15.0618 11.1589 15.1855 11.4258L8.93555 17.6855C8.81185 17.8092 8.75 17.9557 8.75 18.125C8.75 18.2943 8.81185 18.4408 8.93555 18.5645C9.05925 18.6882 9.20573 18.75 9.375 18.75C9.54427 18.75 9.69075 18.6882 9.81445 18.5645L16.0742 12.3145C16.3411 12.4382 16.6081 12.5 16.875 12.5Z" fill="white"/>
</g>
<defs>
<clipPath id="clip0_256_1625">
<rect width="20" height="20" fill="white"/>
</clipPath>
</defs>
</svg>
