<svg width="38" height="38" viewBox="0 0 38 38" fill="none" xmlns="http://www.w3.org/2000/svg">
<path fill-rule="evenodd" clip-rule="evenodd" d="M18.9993 4.35419C15.115 4.35419 11.3898 5.89723 8.64318 8.64385C5.89655 11.3905 4.35352 15.1157 4.35352 19C4.35352 22.8843 5.89655 26.6096 8.64318 29.3562C11.3898 32.1028 15.115 33.6459 18.9993 33.6459C22.8837 33.6459 26.6089 32.1028 29.3555 29.3562C32.1021 26.6096 33.6452 22.8843 33.6452 19C33.6452 15.1157 32.1021 11.3905 29.3555 8.64385C26.6089 5.89723 22.8837 4.35419 18.9993 4.35419ZM1.97852 19C1.97852 9.59977 9.5991 1.97919 18.9993 1.97919C28.3996 1.97919 36.0202 9.59977 36.0202 19C36.0202 28.4003 28.3996 36.0209 18.9993 36.0209C9.5991 36.0209 1.97852 28.4003 1.97852 19ZM10.7708 17.8125H14.8083C15.0053 17.1178 15.3727 16.4832 15.877 15.9664L13.8567 12.4672C12.1802 13.7869 11.0753 15.7007 10.7708 17.8125ZM15.9134 11.2797L17.9322 14.7789C18.6327 14.6024 19.366 14.6024 20.0665 14.7789L22.0853 11.2797C21.1042 10.886 20.0565 10.685 18.9993 10.6875C17.9084 10.6875 16.8682 10.8981 15.9134 11.2797ZM24.1404 12.4672L22.1201 15.9664C22.6173 16.4762 22.9893 17.1079 23.1888 17.8125H27.2263C26.9211 15.7011 25.8156 13.7878 24.1388 12.4688M27.2248 20.1891H23.1873C22.9902 20.8839 22.6229 21.5184 22.1185 22.0353L24.1388 25.5344C25.8154 24.2147 26.9203 22.3009 27.2248 20.1891ZM22.0821 26.7219L20.0633 23.2228C19.3629 23.3998 18.6294 23.3998 17.929 23.2228L15.9103 26.7219C16.8634 27.1035 17.9053 27.3141 18.9962 27.3141C20.0871 27.3141 21.1289 27.1035 22.0837 26.7219M13.8551 25.5344L15.8754 22.0353C15.3722 21.5178 15.0055 20.8834 14.8083 20.1891H10.7708C11.0753 22.3001 12.1795 24.2133 13.8551 25.5329M18.0256 20.7243L18.0082 20.7148L17.9923 20.7053C17.6962 20.5308 17.4507 20.2823 17.2798 19.9841C17.1089 19.6859 17.0186 19.3483 17.0178 19.0047C17.017 18.661 17.1058 18.323 17.2752 18.024C17.4447 17.725 17.6891 17.4754 17.9844 17.2995L18.0082 17.2869L18.0319 17.271C18.326 17.1054 18.6579 17.0184 18.9954 17.0184C19.3329 17.0184 19.6648 17.1054 19.9588 17.271L19.9873 17.2869L20.0143 17.3027C20.3088 17.4793 20.5523 17.7295 20.7208 18.0287C20.8894 18.3279 20.9772 18.6659 20.9756 19.0093C20.974 19.3527 20.8831 19.6898 20.7117 19.9874C20.5404 20.2851 20.2946 20.533 19.9984 20.7069L19.9873 20.7148L19.9747 20.7227C19.6781 20.8926 19.3422 20.9821 19.0004 20.9824C18.6585 20.9827 18.3225 20.8937 18.0256 20.7243ZM8.31185 19C8.31185 16.1655 9.43785 13.4471 11.4421 11.4428C13.4464 9.43852 16.1648 8.31252 18.9993 8.31252C21.8339 8.31252 24.5523 9.43852 26.5566 11.4428C28.5608 13.4471 29.6868 16.1655 29.6868 19C29.6868 21.8345 28.5608 24.5529 26.5566 26.5572C24.5523 28.5615 21.8339 29.6875 18.9993 29.6875C16.1648 29.6875 13.4464 28.5615 11.4421 26.5572C9.43785 24.5529 8.31185 21.8345 8.31185 19Z" fill="black"/>
</svg>
