<svg width="14" height="14" viewBox="0 0 14 14" fill="none" xmlns="http://www.w3.org/2000/svg">
<path d="M0.8125 5.875C0.663316 5.875 0.520242 5.81574 0.414753 5.71025C0.309263 5.60476 0.25 5.46169 0.25 5.3125V0.813629C0.25 0.664445 0.309263 0.521371 0.414753 0.415882C0.520242 0.310392 0.663316 0.251129 0.8125 0.251129H5.3125C5.46168 0.251129 5.60476 0.310392 5.71025 0.415882C5.81574 0.521371 5.875 0.664445 5.875 0.813629V5.3125C5.875 5.46169 5.81574 5.60476 5.71025 5.71025C5.60476 5.81574 5.46168 5.875 5.3125 5.875H0.8125ZM8.6875 5.875C8.53832 5.875 8.39524 5.81574 8.28975 5.71025C8.18426 5.60476 8.125 5.46169 8.125 5.3125V0.813629C8.125 0.664445 8.18426 0.521371 8.28975 0.415882C8.39524 0.310392 8.53832 0.251129 8.6875 0.251129H13.1864C13.3356 0.251129 13.4786 0.310392 13.5841 0.415882C13.6896 0.521371 13.7489 0.664445 13.7489 0.813629V5.3125C13.7489 5.46169 13.6896 5.60476 13.5841 5.71025C13.4786 5.81574 13.3356 5.875 13.1864 5.875H8.6875ZM0.8125 13.75C0.663316 13.75 0.520242 13.6907 0.414753 13.5853C0.309263 13.4798 0.25 13.3367 0.25 13.1875V8.6875C0.25 8.53832 0.309263 8.39525 0.414753 8.28976C0.520242 8.18427 0.663316 8.125 0.8125 8.125H5.3125C5.46168 8.125 5.60476 8.18427 5.71025 8.28976C5.81574 8.39525 5.875 8.53832 5.875 8.6875V13.1875C5.875 13.3367 5.81574 13.4798 5.71025 13.5853C5.60476 13.6907 5.46168 13.75 5.3125 13.75H0.8125ZM8.6875 13.75C8.53832 13.75 8.39524 13.6907 8.28975 13.5853C8.18426 13.4798 8.125 13.3367 8.125 13.1875V8.6875C8.125 8.53832 8.18426 8.39525 8.28975 8.28976C8.39524 8.18427 8.53832 8.125 8.6875 8.125H13.1864C13.3356 8.125 13.4786 8.18427 13.5841 8.28976C13.6896 8.39525 13.7489 8.53832 13.7489 8.6875V13.1875C13.7489 13.3367 13.6896 13.4798 13.5841 13.5853C13.4786 13.6907 13.3356 13.75 13.1864 13.75H8.6875Z" fill="white"/>
</svg>
